<svg xmlns="http://www.w3.org/2000/svg" xmlns:xlink="http://www.w3.org/1999/xlink" width="180" height="180" viewBox="0 0 180 180">
    <defs>
        <path id="wh28jj7z9a" d="M0 0H2V32H0z"/>
    </defs>
    <g fill="none" fill-rule="evenodd">
        <g>
            <g>
                <g>
                    <g>
                        <g>
                            <g>
                                <path fill="#FFF" fill-rule="nonzero" stroke="#505050" stroke-width="2" d="M100.773 28.5c1.581 0 3.013.641 4.05 1.679 1.036 1.037 1.677 2.47 1.677 4.053h0v124.536c0 1.583-.641 3.016-1.678 4.053-1.036 1.038-2.468 1.679-4.05 1.679h0-60.545c-1.581 0-3.013-.641-4.05-1.679-1.036-1.037-1.677-2.47-1.677-4.053h0V34.232c0-1.583.641-3.016 1.678-4.053 1.036-1.038 2.468-1.679 4.05-1.679h0z" transform="translate(-1260 -393) translate(190 228) translate(1040) translate(20 61) translate(10 104) translate(21 5.5)"/>
                                <path fill="#505050" d="M59.5 36.5H81.5V38.5H59.5z" transform="translate(-1260 -393) translate(190 228) translate(1040) translate(20 61) translate(10 104) translate(21 5.5)"/>


                            </g>
                            <g>
                                <g transform="translate(-1260 -393) translate(190 228) translate(1040) translate(20 61) translate(10 104) translate(63 77) translate(27 28)">
                                    <use fill="#505050" xlink:href="#wh28jj7z9a"/>
                                </g>

                            </g>
                        </g>
                    </g>
                </g>
            </g>
        </g>
    </g>
</svg>
