<svg xmlns="http://www.w3.org/2000/svg" width="180" height="180" viewBox="0 0 180 180">
    <style type="text/css">
        .item01{ animation:motion01 1s infinite; transform-origin:50% 50%}
        @keyframes motion01{
        from{ opacity:0; }
        to{ opacity:1; }
        }
    </style>
    <g fill="none" fill-rule="evenodd">
        <g>
            <g>
                <g>
                    <g>
                        <g>
                            <path fill="#FFF" d="M40 37H139V136H40z" transform="translate(-1000 -393) translate(190 228) translate(780) translate(20 61) translate(10 104)"/>
                            <path fill="#FFF" fill-rule="nonzero" stroke="#505050" stroke-width="2" d="M140 37v101H39V37h101z" transform="translate(-1000 -393) translate(190 228) translate(780) translate(20 61) translate(10 104)"/>
                            <path fill="#FFF" stroke="#F5535F" stroke-width="2" d="M54 52H125V123H54z" transform="translate(-1000 -393) translate(190 228) translate(780) translate(20 61) translate(10 104)"/>
                            <path fill="#491BC7" d="M74.525 144.016v8.787h-2v-8.787h2zm15.377 0v8.787h-2v-8.787h2zm15.377 0v8.787h-2v-8.787h2zm15.377 0v8.787h-2v-8.787h2zm-61.508 0v8.787h-2v-8.787h2zm96.655-28.36v2h-8.787v-2h8.787zm-125.213 0v2h-8.787v-2h8.787zm125.213-15.377v2h-8.787v-2h8.787zm-125.213 0v2h-8.787v-2h8.787zm125.213-15.377v2h-8.787v-2h8.787zm-125.213 0v2h-8.787v-2h8.787zm125.213-15.377v2h-8.787v-2h8.787zm-125.213 0v2h-8.787v-2h8.787zm125.213-15.377v2h-8.787v-2h8.787zm-125.213 0v2h-8.787v-2h8.787zm28.558-35.345v8.787h-2v-8.787h2zm15.377 0v8.787h-2v-8.787h2zm15.377 0v8.787h-2v-8.787h2zm15.377 0v8.787h-2v-8.787h2zm15.377 0v8.787h-2v-8.787h2z" transform="translate(-1000 -393) translate(190 228) translate(780) translate(20 61) translate(10 104)"/>
                            <path class="item01" fill="#F5535F" d="M97.475 70l-5.119 15.992-.244.508H102.2l-20.475 23.1 5.119-15.992.243-.509L77 93.1 97.475 70z" transform="translate(-1000 -393) translate(190 228) translate(780) translate(20 61) translate(10 104)"/>
                        </g>
                    </g>
                </g>
            </g>
        </g>
    </g>
</svg>
