<svg xmlns="http://www.w3.org/2000/svg" width="180" height="180" viewBox="0 0 180 180">
    <g fill="none" fill-rule="evenodd">
        <g>
            <g>
                <g>
                    <g>
                        <g>
                            <g transform="translate(-740 -393) translate(190 228) translate(520) translate(20 61) translate(10 104) translate(5 19)">
                                <circle cx="89.368" cy="69.06" r="44.986" fill="#491BC7"/>
                                <text fill="#FFF" font-family="AppleSDGothicNeo-Light, Apple SD Gothic Neo" font-size="56" font-weight="300">
                                    <tspan x="66.121" y="97.348">￦</tspan>
                                </text>
                                <g>
                                    <path fill="#FFF" stroke="#505050" stroke-width="2" d="M151.966 6.052C157 1.976 162.129.347 167.362 1.242h0L130.39 52.267 62.118 62.93H44.963l-16.845 6.276L15.974 41.73l27.834-7.86 32.99 6.987 39.67-2.394c17.853-16.9 29.685-27.704 35.498-32.41z" transform="translate(0 61.279)"/>
                                    <path fill="#FFF" stroke="#505050" stroke-width="2" d="M38.3 30.933c11.637-5.012 22.799-5.037 33.482-.043 4.543 3.338 14.553 4.361 30.167 2.792 4.325.006 7.973.74 10.935 2.231 2.516 1.267 4.527 3.084 6.035 5.447-24.12 5.393-44.364 7.552-60.732 6.458-6.379-.426-19.4-2.92-39.063-7.47h0z" transform="translate(0 61.279)"/>
                                    <path fill="#F5535F" d="M6.804 38.837H26.244V77.744H6.804z" transform="translate(0 61.279) rotate(-22 16.524 58.29)"/>
                                    <path fill="#FFF" d="M22.275 33.41c2.349-.34 4.018-.535 5.01-.583 3.357-.163 5.966.074 8.365.074 3.46 0 8.729.17 15.805.51 8.087 9.26 9.748 15.477 4.984 18.653-4.764 3.176-16.152 3.443-34.164.8V33.411z" transform="translate(0 61.279) rotate(-23 40.681 43.717)"/>
                                    <path fill="#FFF" d="M46.206 44.986H62.012V53.497H46.206z" transform="translate(0 61.279)"/>
                                </g>

                            </g>
                        </g>
                    </g>
                </g>
            </g>
        </g>
    </g>
</svg>
