<svg xmlns="http://www.w3.org/2000/svg" width="180" height="180" viewBox="0 0 180 180">
    <g fill="none" fill-rule="evenodd">
        <g>
            <g>
                <g>
                    <g>
                        <g>
                            <g>
                                <g>
                                    <path fill="#FFF" stroke="#505050" stroke-width="2" d="M48.16 2.101c2.624 2.157 4.324 3.807 5.072 4.972 1.135 1.877 3.207 7.613-1.906 18.622h0l-4.55 9.245h8.375L44.309 75.4c-1.638-.242-5.364-1.046-10.969-3.66-.022-.012-.259-.095-.642-.199-1.064-.288-3.718-.997-5.626-2.212h0-12.683c-.247 0-.471-.098-.633-.258-.157-.155-.256-.369-.256-.605h0v-31.38c0-.236.099-.45.256-.605.162-.16.386-.258.633-.258h8.505c.673-1.61 5.534-6.605 10.049-10.238 4.363-3.51 6.672-5.476 8.45-8.295 1.478-2.345 1.626-2.743 2.782-5.949.232-.644.507-1.406.845-2.327.377-.973 1.424-3.41 3.14-7.314z" transform="translate(-2560 -393) translate(190 228) translate(2340) translate(20 61) translate(10 104) translate(24 9) translate(3.5 14.5)"/>
                                    <path fill="#F5535F" d="M0.5 75L17 75 17 31.5 0.5 31.5z" transform="translate(-2560 -393) translate(190 228) translate(2340) translate(20 61) translate(10 104) translate(24 9) translate(3.5 14.5)"/>
                                    <path fill="#505050" fill-rule="nonzero" d="M42.254 42.5l1.915.705c-1.68 6.95-6.366 9.503-15.61 9.64l-.559.003v-2c8.132 0 12.705-2.656 14.161-7.989l.093-.359z" transform="translate(-2560 -393) translate(190 228) translate(2340) translate(20 61) translate(10 104) translate(24 9) translate(3.5 14.5)"/>
                                </g>
                                <g>
                                    <path fill="#FFF" fill-rule="nonzero" stroke="#505050" stroke-width="2" d="M32.137 17.902c.907-.905 2.16-1.466 3.542-1.467h0l54.04-.04c1.382-.001 2.633.556 3.538 1.46.904.902 1.463 2.15 1.462 3.527h0l-.084 110.867c-.001 1.379-.562 2.627-1.468 3.531-.907.905-2.16 1.466-3.542 1.467h0l-54.04.04c-1.382.001-2.633-.556-3.538-1.46-.904-.902-1.463-2.149-1.462-3.527h0l.084-110.866c.001-1.38.562-2.628 1.468-3.532z" transform="translate(-2560 -393) translate(190 228) translate(2340) translate(20 61) translate(10 104) translate(24 9) rotate(15 19.701 151.455)"/>
                                    <path fill="#505050" d="M53.097 21.568L72.622 26.048 72.146 27.568 52.622 23.088z" transform="translate(-2560 -393) translate(190 228) translate(2340) translate(20 61) translate(10 104) translate(24 9) rotate(15 19.701 151.455) rotate(-15 62.622 24.568)"/>
                                    <path class="survey_icon_item0701" fill="#491BC7" d="M83.874 33.326l.711 1.86-.002.001 4.691 12.246-1.858.717-4.252-11.097-38.456 86.985 10.93-4.202.712 1.86-12.051 4.633v.002l-1.858.716-.002-.003-.004.003-.71-1.86.002-.002-4.692-12.246 1.858-.716 4.244 11.074L81.58 36.34l-10.91 4.195-.71-1.86 12.05-4.633v-.001l1.858-.717.002.003.004-.002z" transform="translate(-2560 -393) translate(190 228) translate(2340) translate(20 61) translate(10 104) translate(24 9) rotate(15 19.701 151.455)"/>
                                </g>
                                <path fill="#505050" d="M91 6H93V21H91zM103 0H105V25.5H103z" transform="translate(-2560 -393) translate(190 228) translate(2340) translate(20 61) translate(10 104) translate(24 9)"/>
                            </g>
                        </g>
                    </g>
                </g>
            </g>
        </g>
    </g>
</svg>
