<svg xmlns="http://www.w3.org/2000/svg" xmlns:xlink="http://www.w3.org/1999/xlink" width="180" height="180" viewBox="0 0 180 180">
    <defs>
        <path id="qkqzklvlfa" d="M17.062 35.75c0-.449.364-.813.813-.813.414 0 .756.31.806.711l.006.102v13.509c2.062.648 4.242 1.029 6.5 1.103V27.625c0-.449.364-.813.813-.813.449 0 .812.364.812.813v22.737c2.259-.074 4.439-.455 6.501-1.103l-.001-22.673h-.023c.016-.193.023-.388.023-.586 0-4.039-3.273-7.313-7.312-7.313S18.687 21.962 18.687 26c0 .198.008.393.024.587l-.024-.001v3.876c0 .449-.363.813-.812.813-.449 0-.813-.364-.813-.813V26l.149-.001.002-.116c.14-4.814 4.086-8.674 8.934-8.674 4.936 0 8.937 4.001 8.937 8.938 0 .55-.05 1.089-.145 1.612l-.002 15.303v7.361C32.152 51.443 29.14 52 26 52c-3.14 0-6.15-.557-8.938-1.577V35.75zm24.375.813c0-.45.364-.813.813-.813.449 0 .812.364.812.813v6.844c4.513-4.424 7.313-10.588 7.313-17.407C50.375 12.538 39.462 1.625 26 1.625S1.625 12.538 1.625 26c0 6.819 2.8 12.983 7.312 17.407V26c0-9.423 7.64-17.063 17.063-17.063 9.315 0 16.887 7.465 17.06 16.739l.002.324v4.462c0 .449-.363.813-.812.813-.449 0-.813-.364-.813-.813V26c0-8.526-6.911-15.438-15.437-15.438S10.562 17.474 10.562 26v20.923C4.155 42.187 0 34.579 0 26 0 11.64 11.64 0 26 0s26 11.64 26 26c0 8.579-4.155 16.187-10.562 20.923v-10.36z"/>
    </defs>
    <g fill="none" fill-rule="evenodd">
        <g>
            <g>
                <g>
                    <g>
                        <g>
                            <path d="M0 0H180V180H0z" transform="translate(-3600 -393) translate(190 228) translate(3380) translate(20 61) translate(10 104)"/>
                            <g>
                                <path fill="#FFF" fill-rule="nonzero" stroke="#505050" stroke-width="2" d="M67.273 1c1.581 0 3.013.641 4.05 1.679C72.358 3.716 73 5.149 73 6.732h0v124.536c0 1.583-.641 3.016-1.678 4.053-1.036 1.038-2.468 1.679-4.05 1.679h0H6.728c-1.581 0-3.013-.641-4.05-1.679C1.642 134.284 1 132.851 1 131.268h0V6.732c0-1.583.641-3.016 1.678-4.053C3.714 1.64 5.146 1 6.728 1h0z" transform="translate(-3600 -393) translate(190 228) translate(3380) translate(20 61) translate(10 104) translate(53 21)"/>
                                <path fill="#505050" d="M26 9H48V11H26z" transform="translate(-3600 -393) translate(190 228) translate(3380) translate(20 61) translate(10 104) translate(53 21)"/>
                            </g>
                            <g transform="translate(-3600 -393) translate(190 228) translate(3380) translate(20 61) translate(10 104) translate(63 60)">
                                <path d="M0 0H54V54H0z"/>
                                <circle cx="27" cy="27" r="26" fill="#FFF"/>
                                <circle class="survey_icon_item1001" cx="27" cy="27.5" r="13" fill="#F5535F"/>
                                <g transform="translate(1 1)">
                                    <use fill="#505050" xlink:href="#qkqzklvlfa"/>
                                </g>
                            </g>
                        </g>
                    </g>
                </g>
            </g>
        </g>
    </g>
</svg>
