<svg xmlns="http://www.w3.org/2000/svg" width="180" height="180" viewBox="0 0 180 180">
    <g fill="none" fill-rule="evenodd">
        <g>
            <g>
                <g>
                    <g>
                        <g>
                            <path d="M0 0H180V180H0z" transform="translate(-4380 -393) translate(190 228) translate(4160) translate(20 61) translate(10 104)"/>
                            <g>
                                <path fill="#FFF" fill-rule="nonzero" stroke="#505050" stroke-width="2" d="M116.438 1c1.25.02 2.38.537 3.203 1.363.84.843 1.359 2.009 1.359 3.296h0V120.34c0 1.287-.52 2.453-1.36 3.296-.822.826-1.952 1.343-3.202 1.362h0l-50.727-8c-1.612.026-3.039-.776-3.889-2.008h0L61 113.797l-.823 1.195c-.849 1.232-2.275 2.033-3.887 2.007h0l-50.727 8c-1.25-.02-2.38-.536-3.203-1.362C1.52 122.794 1 121.628 1 120.34h0V5.66c0-1.287.52-2.453 1.36-3.296.822-.826 1.952-1.343 3.202-1.362h0l50.727 8c1.612-.026 3.039.776 3.889 2.008h0L61 12.203l.823-1.195c.849-1.232 2.275-2.033 3.887-2.007h0z" transform="translate(-4380 -393) translate(190 228) translate(4160) translate(20 61) translate(10 104) translate(29 27)"/>
                                <g fill="#F5535F">
                                    <path d="M0 0H2V8.936H0zM0 12.511H2V21.447H0zM0 25.021H2V33.957H0zM0 37.532H2V46.467999999999996H0zM0 50.043H2V58.979H0zM0 62.553H2V71.489H0zM0 75.064H2V84H0z" transform="translate(-4380 -393) translate(190 228) translate(4160) translate(20 61) translate(10 104) translate(29 27) translate(60 21)"/>
                                </g>
                            </g>
                            <g stroke="#491BC7" stroke-width="2">
                                <path class="survey_icon_item1301" d="M9.12 12.756c4.247-3.675 10.9-5.512 19.958-5.512 9.059 0 15.872 1.837 20.44 5.512" transform="translate(-4380 -393) translate(190 228) translate(4160) translate(20 61) translate(10 104) translate(61 14)"/>
                                <path class="survey_icon_item1302" d="M0 8c6.164-5.333 15.82-8 28.97-8 13.148 0 23.038 2.667 29.67 8" transform="translate(-4380 -393) translate(190 228) translate(4160) translate(20 61) translate(10 104) translate(61 14)"/>
                            </g>
                            <g stroke="#491BC7" stroke-width="2">
                                <path class="survey_icon_item1301" d="M9.12 12.756c4.247-3.675 10.9-5.512 19.958-5.512 9.059 0 15.872 1.837 20.44 5.512" transform="translate(-4380 -393) translate(190 228) translate(4160) translate(20 61) translate(10 104) matrix(1 0 0 -1 61 166)"/>
                                <path class="survey_icon_item1302" d="M0 8c6.164-5.333 15.82-8 28.97-8 13.148 0 23.038 2.667 29.67 8" transform="translate(-4380 -393) translate(190 228) translate(4160) translate(20 61) translate(10 104) matrix(1 0 0 -1 61 166)"/>
                            </g>
                        </g>
                    </g>
                </g>
            </g>
        </g>
    </g>
</svg>
